<?xml version="1.0" encoding="UTF-8"?>
<!DOCTYPE svg PUBLIC "-//W3C//DTD SVG 1.1//EN" "http://www.w3.org/Graphics/SVG/1.1/DTD/svg11.dtd">
<!-- Creator: CorelDRAW -->
<svg xmlns="http://www.w3.org/2000/svg" xml:space="preserve" width="26.8898mm" height="40.2253mm" version="1.1" style="shape-rendering:geometricPrecision; text-rendering:geometricPrecision; image-rendering:optimizeQuality; fill-rule:evenodd; clip-rule:evenodd"
viewBox="0 0 133.93 200.35"
 xmlns:xlink="http://www.w3.org/1999/xlink"
 xmlns:xodm="http://www.corel.com/coreldraw/odm/2003">
 <defs>
  <style type="text/css">
   <![CDATA[
    .fil0 {fill:#916840;fill-rule:nonzero}
   ]]>
  </style>
 </defs>
 <g id="Camada_x0020_1">
  <metadata id="CorelCorpID_0Corel-Layer"/>
  <path id="pbp2GMCJC" class="fil0" d="M34.45 55.43c8.57,-5.51 8.13,-8.89 8.17,-18.87 0.01,-6.79 0.08,-14.32 -0.14,-21.06 -0.13,-4.16 0.65,-3.16 -4.24,-3.22 -8.28,-0.11 -9.65,0.86 -9.23,-8.37 0.23,-5.06 6.42,-3.76 10.22,-3.76 14.84,0.02 29.77,-0.25 44.59,0.01l15.27 0c2.02,0 3.66,1.65 3.66,3.66l0 4.78c0,2.02 -1.65,3.66 -3.66,3.66l-9.21 0c-0.18,8.1 -1.73,34.54 4.2,39.66 3.65,3.15 10.22,5.85 14.92,9.65 16.67,13.83 25.88,34.88 24.84,56.53 -0.07,1.43 -1.37,10.11 -1.5,10.6 -0.42,1.59 -0.42,0.92 -0.78,2.79 -6.07,23.58 -26.75,43.38 -50.4,48.76 -1.67,0.38 -3.33,0.75 -5,1.14 -3.53,0.83 -3.14,2.34 -2.87,5.9 0.11,0.29 0.25,0.55 0.41,0.77l34.88 0c1.83,0 3.33,1.5 3.33,3.33l0 5.62c0,1.83 -1.5,3.33 -3.33,3.33l-41.79 0c-5.75,0.03 -10.52,0.02 -12.77,0.02 -1.02,-0 -2.05,-0.01 -3.07,-0.02l-26.19 0c-1.83,0 -3.33,-1.5 -3.33,-3.33l0 -5.62c0,-1.83 1.5,-3.33 3.33,-3.33l34.57 0c1.1,-0.52 0.99,-1.05 0.91,-3.04 -0.87,-4.83 -6,-4.29 -10.19,-5.31 -29.42,-7.21 -50.02,-35.24 -50.06,-65.35 0.02,-1.93 0.14,-3.73 0.29,-5.65 2.1,-22.65 15.65,-40.87 34.16,-53.27zm86.73 43.2c-4.2,-15.42 -13.79,-26.22 -27.67,-33.81 -9.73,-5.16 -11.6,-7.05 -13.78,-18.31 -2.01,-10.38 -1.19,-22.77 -1.19,-33.41l-0.01 -0.83c-8.04,0 -16.46,-0.18 -24.45,0.08 -0.53,11.12 1.61,28.24 -1.81,38.52 -7.44,17.16 -17.99,14.65 -29.17,28.89 -22.84,29.11 -12.51,72.87 22.18,86.66 18.66,7.42 37.36,4.95 53.85,-6.3l2.46 -1.73c10.01,-7.26 19.02,-22.41 21.09,-34.58 1.48,-8.66 0.68,-16.73 -1.52,-25.18z"/>
  <path id="p13m8e10z7" class="fil0" d="M66.36 163.51c-0.08,-0.08 -1.22,-0.23 -2.55,-0.34 -1.33,-0.08 -3.2,-0.42 -4.23,-0.69 -0.99,-0.3 -1.83,-0.53 -1.9,-0.53 -0.04,0.04 -0.5,-0.15 -1.03,-0.34 -0.53,-0.23 -2.25,-0.76 -3.81,-1.26 -5.1,-1.52 -10.13,-4.3 -14.05,-7.77 -2.28,-2.02 -6.89,-6.78 -6.89,-7.12 0,-0.19 -0.84,-1.33 -1.83,-2.55 -0.99,-1.26 -2.21,-3.01 -2.67,-3.92 -0.5,-0.91 -1.03,-1.9 -1.18,-2.21 -0.8,-1.45 -1.94,-4.15 -1.94,-4.65 0,-0.3 -0.15,-0.69 -0.3,-0.88 -1.67,-1.87 -4,-17.9 -2.82,-19.3 0.19,-0.27 0.46,-0.91 0.53,-1.45 0.11,-0.91 0.27,-0.95 3.12,-1.14l3.01 -0.19 -0.27 4.46c-0.15,2.47 -0.15,4.68 -0.04,4.87 0.11,0.23 0.3,1.6 0.38,3.08 0.11,1.52 0.34,2.93 0.5,3.16 0.19,0.23 0.57,1.45 0.84,2.7 0.27,1.26 0.61,2.48 0.76,2.67 0.15,0.23 0.95,1.68 1.75,3.24 1.94,3.81 4.84,7.5 8.87,11.42 4.65,4.53 5.44,5.1 11.27,8.11 4.04,2.06 8.41,3.31 13.59,3.92l2.17 0.23 0.11 3.31c0.11,2.97 0.04,3.31 -0.57,3.31 -0.38,0 -0.76,-0.08 -0.84,-0.15l0 0z"/>
  <path id="p60vnTfVZ" class="fil0" d="M69.83 74.9c0.7,-1.55 0.55,-1.51 1.66,0.7 3.73,8.55 1.07,15.19 11.37,18.57 3.49,1.14 8.33,2.33 11.16,4.65 -6.72,3.59 -15.89,3.08 -18.49,10.53 -0.47,1.33 -3.79,15.29 -5.4,13.24 -3.38,-4.32 -1.34,-14.52 -9.52,-18.79 -1.32,-0.69 -13.65,-4.7 -12.87,-5.96 1.27,-2.07 15.09,-1.52 18.7,-11.63 1.38,-3.87 1.66,-7.07 3.39,-11.3z"/>
 </g>
</svg>
