<?xml version="1.0" encoding="UTF-8"?>
<!DOCTYPE svg PUBLIC "-//W3C//DTD SVG 1.1//EN" "http://www.w3.org/Graphics/SVG/1.1/DTD/svg11.dtd">
<!-- Creator: CorelDRAW -->
<svg xmlns="http://www.w3.org/2000/svg" xml:space="preserve" width="115.135mm" height="40.2253mm" version="1.1" style="shape-rendering:geometricPrecision; text-rendering:geometricPrecision; image-rendering:optimizeQuality; fill-rule:evenodd; clip-rule:evenodd"
viewBox="0 0 2455.32 857.83"
 xmlns:xlink="http://www.w3.org/1999/xlink"
 xmlns:xodm="http://www.corel.com/coreldraw/odm/2003">
 <defs>
  <style type="text/css">
   <![CDATA[
    .fil1 {fill:#362C24;fill-rule:nonzero}
    .fil0 {fill:#916840;fill-rule:nonzero}
   ]]>
  </style>
 </defs>
 <g id="Camada_x0020_1">
  <metadata id="CorelCorpID_0Corel-Layer"/>
  <path id="pbp2GMCJC" class="fil0" d="M147.51 237.35c36.68,-23.61 34.79,-38.06 34.98,-80.81 0.03,-29.08 0.33,-61.31 -0.6,-90.19 -0.58,-17.83 2.78,-13.52 -18.14,-13.79 -35.45,-0.46 -41.34,3.67 -39.51,-35.82 1,-21.65 27.47,-16.11 43.76,-16.09 63.52,0.07 127.48,-1.09 190.93,0.04l65.37 0c8.63,0 15.69,7.06 15.69,15.69l0 20.47c0,8.63 -7.06,15.69 -15.69,15.69l-39.42 0c-0.78,34.68 -7.41,147.89 18,169.82 15.65,13.5 43.74,25.04 63.87,41.32 71.37,59.2 110.8,149.33 106.36,242.03 -0.29,6.13 -5.86,43.3 -6.41,45.37 -1.82,6.82 -1.81,3.92 -3.32,11.94 -25.99,100.97 -114.56,185.76 -215.8,208.78 -7.13,1.62 -14.27,3.22 -21.4,4.86 -15.12,3.57 -13.44,10.01 -12.29,25.24 0.48,1.26 1.07,2.34 1.75,3.28l149.35 0c7.84,0 14.24,6.41 14.24,14.24l0 24.07c0,7.84 -6.41,14.24 -14.24,14.24l-178.93 0c-24.64,0.12 -45.04,0.1 -54.68,0.07 -4.39,-0.01 -8.77,-0.04 -13.15,-0.07l-112.14 0c-7.84,0 -14.24,-6.41 -14.24,-14.24l0 -24.07c0,-7.84 6.41,-14.24 14.24,-14.24l148.01 0c4.72,-2.22 4.22,-4.5 3.89,-13 -3.72,-20.66 -25.69,-18.35 -43.63,-22.75 -125.96,-30.89 -214.17,-150.88 -214.34,-279.8 0.09,-8.27 0.6,-15.98 1.26,-24.21 9,-96.99 66.99,-175 146.25,-228.07zm371.34 184.95c-17.99,-66.02 -59.05,-112.29 -118.46,-144.76 -41.66,-22.09 -49.68,-30.17 -59.01,-78.38 -8.59,-44.42 -5.1,-97.49 -5.08,-143.05l-0.03 -3.57c-34.42,0 -70.46,-0.77 -104.69,0.34 -2.28,47.63 6.91,120.92 -7.76,164.92 -31.84,73.49 -77.05,62.71 -124.89,123.7 -97.8,124.66 -53.58,312 94.98,371.05 79.89,31.76 159.98,21.19 230.59,-26.97l10.54 -7.39c42.85,-31.09 81.42,-95.96 90.31,-148.06 6.32,-37.08 2.89,-71.64 -6.51,-107.82z"/>
  <path id="p13m8e10z7" class="fil0" d="M284.11 700.1c-0.32,-0.33 -5.22,-0.98 -10.92,-1.47 -5.7,-0.33 -13.69,-1.79 -18.1,-2.93 -4.24,-1.31 -7.82,-2.28 -8.15,-2.28 -0.16,0.16 -2.12,-0.65 -4.4,-1.47 -2.28,-0.98 -9.62,-3.26 -16.3,-5.38 -21.85,-6.52 -43.37,-18.42 -60.16,-33.26 -9.78,-8.64 -29.51,-29.02 -29.51,-30.49 0,-0.81 -3.59,-5.71 -7.83,-10.92 -4.24,-5.38 -9.46,-12.88 -11.41,-16.79 -2.12,-3.91 -4.4,-8.15 -5.05,-9.46 -3.42,-6.2 -8.31,-17.77 -8.31,-19.89 0,-1.31 -0.65,-2.93 -1.31,-3.75 -7.17,-7.99 -17.12,-76.63 -12.06,-82.66 0.82,-1.14 1.96,-3.91 2.28,-6.2 0.49,-3.91 1.14,-4.08 13.37,-4.89l12.88 -0.81 -1.14 19.08c-0.65,10.6 -0.65,20.05 -0.16,20.87 0.49,0.98 1.31,6.85 1.63,13.2 0.49,6.52 1.47,12.55 2.12,13.53 0.81,0.98 2.44,6.2 3.59,11.57 1.14,5.38 2.61,10.6 3.26,11.41 0.65,0.98 4.08,7.17 7.5,13.86 8.31,16.3 20.71,32.12 37.99,48.91 19.89,19.4 23.31,21.85 48.26,34.72 17.28,8.81 36.03,14.19 58.2,16.79l9.29 0.98 0.49 14.19c0.49,12.72 0.16,14.18 -2.45,14.18 -1.63,0 -3.26,-0.33 -3.59,-0.65l0 0z"/>
  <path id="p60vnTfVZ" class="fil0" d="M299.01 320.7c3.01,-6.64 2.35,-6.46 7.1,2.98 15.99,36.59 4.57,65.05 48.67,79.5 14.93,4.9 35.66,10 47.79,19.91 -28.78,15.38 -68.02,13.18 -79.18,45.08 -2,5.71 -16.23,65.47 -23.11,56.67 -14.47,-18.48 -5.75,-62.18 -40.75,-80.44 -5.63,-2.94 -58.43,-20.11 -55.12,-25.52 5.42,-8.86 64.61,-6.5 80.05,-49.8 5.91,-16.57 7.09,-30.28 14.53,-48.4z"/>
  <path id="p18qezx4uQ" class="fil1" d="M769.14 575.87c-20.21,-4.08 -35.21,-10.76 -56.41,-25.27 -11.09,-7.34 -28.86,-29.35 -34.73,-42.39 -8.64,-19.4 -13.2,-36.19 -13.2,-48.09 0,-3.59 -0.65,-6.52 -1.31,-6.52 -1.47,0 0.33,-23.15 2.94,-37.66 2.12,-11.25 7.5,-27.06 10.6,-30.81 1.14,-1.3 4.4,-6.85 7.34,-12.23 11.74,-21.85 48.26,-49.72 65.05,-49.72 2.28,0 6.03,-1.31 8.15,-2.77 2.61,-1.79 8.48,-2.93 16.79,-3.42 7.01,-0.49 13.2,-1.47 13.7,-2.12 2.93,-4.89 54.45,3.1 63.42,9.78 0.82,0.65 4.24,2.28 7.34,3.42 8.64,3.26 35.87,26.9 35.87,31.14 0,1.96 -24.29,25.92 -26.25,25.92 -0.98,0 -5.22,-3.1 -9.46,-6.85 -8.48,-7.5 -25.27,-16.63 -34.4,-18.42 -3.1,-0.65 -7.83,-1.63 -10.6,-2.12 -17.61,-3.75 -47.61,1.63 -63.91,11.41 -10.6,6.36 -27.72,24.13 -30.98,32.28 -1.3,3.1 -3.42,7.99 -4.56,10.6 -3.1,6.85 -5.71,22.5 -5.71,34.56 0,12.72 3.1,33.1 5.54,36.36 0.98,1.3 3.42,5.87 5.54,9.94 5.38,10.76 12.39,18.59 22.82,25.6 20.38,13.69 34.07,17.44 60.16,16.3 16.63,-0.65 18.91,-1.14 30.81,-6.85 7.01,-3.26 15.98,-8.48 19.73,-11.25l6.85 -5.22 0.16 -15.49 0 -15.49 -26.41 0.33c-16.95,0.16 -27.23,-0.33 -28.53,-1.47 -2.28,-1.79 -3.1,-30.98 -1.14,-36.19 0.81,-2.28 6.85,-2.61 49.56,-2.61 42.72,0 48.75,0.33 49.56,2.61 0.49,1.47 0.98,13.86 0.98,27.71 0,29.51 -2.77,45.81 -10.11,59.83 -9.78,18.26 -31.79,33.91 -59.18,42.06 -12.88,3.75 -53.15,5.71 -66.03,3.1l-0 0z"/>
  <path id="pLUiB8vUz" class="fil1" d="M1159.93 574.73c-2.45,-2.28 -0.82,-9.29 7.99,-32.44 4.89,-13.37 9.62,-25.76 10.43,-27.55 0.81,-1.79 7.5,-19.4 14.67,-39.13 7.34,-19.73 14.18,-38.48 15.49,-41.57 1.14,-3.1 5.54,-14.84 9.78,-26.09 4.24,-11.25 9.78,-25.92 12.23,-32.61 2.61,-6.68 7.83,-20.71 11.58,-30.98 3.75,-10.27 7.5,-19.4 8.15,-20.38 0.82,-0.82 1.47,-2.77 1.47,-4.24 0,-4.08 3.26,-4.73 26.09,-4.73 14.67,0 21.36,0.65 22.5,2.12 1.47,1.63 15.82,37.66 31.47,78.58 2.77,7.17 5.71,14.35 6.52,15.82 0.81,1.63 1.47,3.59 1.47,4.57 0,0.98 1.47,4.73 3.1,8.64 1.79,3.75 5.87,14.18 9.29,23.15 3.26,8.97 7.34,19.4 8.97,23.15 1.79,3.75 3.1,7.17 3.1,7.83 0,1.63 28.86,75.48 31.95,81.68 1.47,2.77 2.28,7.17 1.96,9.78l-0.49 4.73 -18.75 0.49c-22.01,0.49 -25.59,-0.16 -26.9,-5.05 -0.65,-1.96 -5.22,-14.51 -10.11,-28.04 -4.89,-13.37 -9.29,-25.43 -9.62,-26.57 -0.49,-1.63 -11.41,-2.12 -54.29,-1.79l-53.64 0.16 -2.45 6.85c-1.47,3.59 -5.22,14.35 -8.48,23.8 -3.26,9.46 -7.17,20.22 -8.48,24.13l-2.61 6.85 -20.71 0c-11.41,0 -21.2,-0.49 -21.68,-1.14l0 0zm153.25 -104.34c-1.63,-5.05 -10.6,-30.16 -15,-42.06 -2.45,-6.2 -7.83,-21.52 -11.9,-33.75 -4.24,-12.23 -8.31,-22.17 -9.29,-21.85 -0.81,0.16 -2.12,2.93 -2.61,6.03 -0.98,4.89 -21.52,61.62 -30.65,84.29 -1.79,4.73 -3.42,8.97 -3.42,9.29 0,0.49 16.63,0.82 36.85,0.82 34.4,0 36.84,-0.16 36.03,-2.77z"/>
  <path id="puVOOleZq" class="fil1" d="M1444.74 573.75c-0.33,-1.14 -0.49,-59.67 -0.33,-129.94l0.49 -127.98 28.86 -0.49 29.02 -0.33 17.12 33.75c9.29,18.75 22.99,45.32 30.16,59.18 7.34,13.86 16.96,32.44 21.36,41.41l8.15 15.98 9.62 -18.75c5.22,-10.27 11.58,-22.66 14.35,-27.39 2.61,-4.89 15.16,-29.35 28.04,-54.45 12.88,-25.11 23.97,-46.63 24.94,-47.61 1.14,-1.63 8.97,-2.12 29.02,-2.12l27.55 0 0 37.17c0.16,180.15 -0.16,217.81 -1.79,219.93 -2.12,2.45 -36.52,3.1 -40.43,0.65 -1.79,-1.14 -2.12,-16.96 -1.96,-94.89 0.16,-51.35 0,-93.09 -0.49,-92.76 -0.33,0.49 -6.2,13.04 -13.04,28.04 -14.35,31.63 -36.03,75.48 -51.03,102.71l-10.43 18.91 -11.74 0.65c-6.36,0.33 -12.88,0.33 -14.35,0 -1.47,-0.33 -5.54,-6.52 -9.13,-13.86 -3.59,-7.34 -12.23,-23.97 -19.08,-37.01 -14.51,-27.55 -34.56,-67.33 -39.62,-79.07 -10.43,-23.8 -9.46,-32.12 -9.95,74.67l-0.32 95.7 -22.01 0c-16.63,0 -22.34,-0.49 -22.99,-2.12l0 0z"/>
  <path id="p11TwOP6OU" class="fil1" d="M1983.73 574.57c-2.12,-0.81 -2.12,-9.29 0,-13.04 0.81,-1.47 3.75,-8.97 6.52,-16.63 2.77,-7.66 6.52,-17.12 8.15,-21.19 5.54,-13.53 29.35,-75.97 29.35,-77.12 0,-0.65 1.31,-4.24 3.1,-8.15 3.59,-8.31 6.36,-15.16 14.18,-36.19 3.26,-8.97 7.01,-18.42 8.15,-21.19 1.14,-2.61 5.38,-14.02 9.62,-25.27 4.24,-11.25 9.29,-24.78 11.41,-30.16l3.75 -9.78 22.66 -0.49c24.94,-0.49 24.45,-0.65 28.2,9.46 1.14,3.1 3.75,9.78 5.87,14.67 1.96,4.89 7.5,18.91 12.06,30.98 4.56,12.06 8.97,23.48 9.78,25.27 0.81,1.79 4.56,11.41 8.31,21.19 3.59,9.95 8.31,22.34 10.43,27.72 2.12,5.38 5.71,15 7.99,21.19 2.45,6.36 4.89,12.88 5.71,14.67 0.81,1.79 4.57,11.41 8.31,21.19 3.75,9.95 10.92,27.88 15.82,39.94 5.05,12.06 9.13,24.46 9.29,27.55l0.16 5.38 -22.01 -0.16c-12.06,-0.16 -22.5,-0.81 -23.15,-1.47 -1.3,-1.3 -7.66,-18.09 -13.04,-33.75 -1.79,-5.38 -3.91,-11.25 -4.73,-13.04 -0.81,-1.79 -2.12,-5.22 -3.1,-7.82l-1.63 -4.4 -53.15 0.33 -53.15 0.49 -3.26 8.15c-1.63,4.57 -5.54,14.84 -8.48,22.82 -6.68,17.93 -11.25,28.53 -12.39,28.53 -10.27,0.49 -39.62,0.65 -40.76,0.33l0 0zm153.09 -109.88c-10.43,-26.41 -13.7,-34.89 -20.22,-52.66 -11.9,-32.77 -14.67,-39.94 -15.49,-39.94 -0.49,0 -3.26,6.85 -6.2,15.16 -2.94,8.15 -6.03,16.47 -6.85,18.26 -0.82,1.79 -4.08,10.6 -7.34,19.56 -3.26,8.97 -8.15,22.17 -10.93,29.35 -2.61,7.17 -5.22,14.35 -5.7,15.98 -0.81,2.61 1.79,2.77 37.66,2.77l38.48 0 -3.42 -8.48 0 0z"/>
  <path id="p15xbAJWdk" class="fil1" d="M962.49 571.63c-0.49,-1.47 -0.98,-59.67 -0.98,-129.61l0 -127 21.2 0c18.42,0 21.19,0.33 22.5,2.94 0.65,1.47 1.14,50.21 0.98,108.25l-0.49 105.64 61.46 0.32 61.46 0.49 0.49 20.87 0.49 20.71 -83.15 0c-74.18,0 -83.15,-0.32 -83.96,-2.61l0 0z"/>
  <path id="p1HZ6OSkoJ" class="fil1" d="M1791.02 573.1l-7.82 -0.65 0 -128.79 0 -128.63 21.19 0 21.19 0 0 108.42 0 108.42 60.97 0c33.59,0 62.12,0.49 63.58,0.98 2.12,0.82 2.61,4.24 2.61,21.2l0 20.21 -76.95 -0.32c-42.39,-0.16 -80.54,-0.49 -84.78,-0.82l0 0z"/>
  <path id="p1BgzoCcBe" class="fil1" d="M2269.36 445.12l0.49 -129.29 48.1 -0.49c37.33,-0.33 51.19,0.16 62.77,2.12 19.56,3.42 33.75,8.15 38.31,13.04 2.12,2.28 4.73,4.08 5.71,4.08 3.42,0 10.11,8.81 15.65,20.38 5.05,10.43 5.54,12.72 5.54,26.09 0,14.35 -3.1,30.16 -5.87,30.16 -0.81,0 -1.47,1.14 -1.47,2.45 0,5.38 -19.07,22.34 -26.74,23.8 -5.05,0.98 -4.89,4.56 0.16,5.7 2.45,0.65 6.85,2.61 9.46,4.24 2.77,1.63 6.36,3.59 8.31,4.4 5.05,2.28 20.05,19.4 21.19,24.29 0.65,2.45 1.79,5.22 2.61,6.36 2.44,3.1 2.28,24.78 -0.33,34.73 -1.31,4.89 -3.59,11.25 -5.22,13.86 -1.63,2.77 -3.59,6.36 -4.4,8.15 -4.4,9.94 -24.62,22.99 -46.63,30.32 -10.92,3.59 -13.86,3.75 -69.78,4.4l-58.2 0.49 0.33 -129.28 0 0zm113.47 83.8c10.11,-3.42 19.4,-9.94 22.01,-15.49 3.91,-8.15 3.91,-26.9 0.16,-34.73 -3.91,-7.82 -15.16,-16.47 -23.15,-17.77 -3.26,-0.65 -7.17,-1.47 -8.48,-1.79 -1.31,-0.49 -15,-0.98 -30.49,-1.14l-28.21 -0.33 0 37.5 0 37.5 31.3 -0.98c17.28,-0.49 33.91,-1.79 36.85,-2.77l-0 0zm-6.2 -111.35c14.84,-3.91 20.22,-9.29 24.29,-24.62 0.82,-3.75 0.98,-6.52 0,-7.17 -0.81,-0.49 -1.47,-3.26 -1.47,-6.36 0,-4.24 -1.47,-7.17 -6.03,-11.9 -8.15,-8.48 -16.14,-10.11 -51.03,-10.11l-27.71 0 0 31.46 0 31.3 27.23 -0.33c15.16,-0.33 30.65,-1.31 34.72,-2.28l0 0z"/>
 </g>
</svg>
